<mxfile host="app.diagrams.net" modified="2021-08-10T11:37:26.809Z" agent="5.0 (Windows NT 10.0; Win64; x64) AppleWebKit/537.36 (KHTML, like Gecko) Chrome/92.0.4515.131 Safari/537.36 Edg/92.0.902.67" etag="vz_OOgBA6bqgSpkb9rb3" version="14.9.5" type="github">
  <diagram id="C5RBs43oDa-KdzZeNtuy" name="Page-1">
    <mxGraphModel dx="1374" dy="794" grid="1" gridSize="10" guides="1" tooltips="1" connect="1" arrows="1" fold="1" page="1" pageScale="1" pageWidth="827" pageHeight="1169" math="0" shadow="0">
      <root>
        <mxCell id="WIyWlLk6GJQsqaUBKTNV-0" />
        <mxCell id="WIyWlLk6GJQsqaUBKTNV-1" parent="WIyWlLk6GJQsqaUBKTNV-0" />
        <mxCell id="WIyWlLk6GJQsqaUBKTNV-2" value="" style="rounded=0;html=1;jettySize=auto;orthogonalLoop=1;fontSize=11;endArrow=block;endFill=0;endSize=8;strokeWidth=1;shadow=0;labelBackgroundColor=none;edgeStyle=orthogonalEdgeStyle;" parent="WIyWlLk6GJQsqaUBKTNV-1" target="WIyWlLk6GJQsqaUBKTNV-6" edge="1">
          <mxGeometry relative="1" as="geometry">
            <mxPoint x="498" y="120" as="sourcePoint" />
          </mxGeometry>
        </mxCell>
        <mxCell id="WIyWlLk6GJQsqaUBKTNV-4" value="Yes" style="rounded=0;html=1;jettySize=auto;orthogonalLoop=1;fontSize=11;endArrow=block;endFill=0;endSize=8;strokeWidth=1;shadow=0;labelBackgroundColor=none;edgeStyle=orthogonalEdgeStyle;" parent="WIyWlLk6GJQsqaUBKTNV-1" source="WIyWlLk6GJQsqaUBKTNV-6" edge="1">
          <mxGeometry y="20" relative="1" as="geometry">
            <mxPoint as="offset" />
            <mxPoint x="498" y="290" as="targetPoint" />
          </mxGeometry>
        </mxCell>
        <mxCell id="WIyWlLk6GJQsqaUBKTNV-5" value="No" style="edgeStyle=orthogonalEdgeStyle;rounded=0;html=1;jettySize=auto;orthogonalLoop=1;fontSize=11;endArrow=block;endFill=0;endSize=8;strokeWidth=1;shadow=0;labelBackgroundColor=none;" parent="WIyWlLk6GJQsqaUBKTNV-1" target="WIyWlLk6GJQsqaUBKTNV-7" edge="1">
          <mxGeometry y="10" relative="1" as="geometry">
            <mxPoint as="offset" />
            <mxPoint x="548" y="210" as="sourcePoint" />
          </mxGeometry>
        </mxCell>
        <mxCell id="WIyWlLk6GJQsqaUBKTNV-9" value="Yes" style="edgeStyle=orthogonalEdgeStyle;rounded=0;html=1;jettySize=auto;orthogonalLoop=1;fontSize=11;endArrow=block;endFill=0;endSize=8;strokeWidth=1;shadow=0;labelBackgroundColor=none;" parent="WIyWlLk6GJQsqaUBKTNV-1" target="WIyWlLk6GJQsqaUBKTNV-12" edge="1">
          <mxGeometry y="10" relative="1" as="geometry">
            <mxPoint as="offset" />
            <mxPoint x="548" y="330" as="sourcePoint" />
          </mxGeometry>
        </mxCell>
        <mxCell id="L-YuUdRwGQFwqvVQeacU-2" value="" style="edgeStyle=orthogonalEdgeStyle;rounded=0;orthogonalLoop=1;jettySize=auto;html=1;" edge="1" parent="WIyWlLk6GJQsqaUBKTNV-1" source="L-YuUdRwGQFwqvVQeacU-0" target="L-YuUdRwGQFwqvVQeacU-1">
          <mxGeometry relative="1" as="geometry" />
        </mxCell>
        <mxCell id="L-YuUdRwGQFwqvVQeacU-0" value="" style="points=[[0.35,0,0],[0.98,0.51,0],[1,0.71,0],[0.67,1,0],[0,0.795,0],[0,0.65,0]];verticalLabelPosition=bottom;html=1;verticalAlign=top;aspect=fixed;align=center;pointerEvents=1;shape=mxgraph.cisco19.user;fillColor=#005073;strokeColor=none;" vertex="1" parent="WIyWlLk6GJQsqaUBKTNV-1">
          <mxGeometry x="20" y="160" width="50" height="50" as="geometry" />
        </mxCell>
        <mxCell id="L-YuUdRwGQFwqvVQeacU-1" value="" style="shape=image;html=1;verticalAlign=top;verticalLabelPosition=bottom;labelBackgroundColor=#ffffff;imageAspect=0;aspect=fixed;image=https://cdn4.iconfinder.com/data/icons/logos-brands-5/24/nginx-128.png;strokeColor=#1921FF;" vertex="1" parent="WIyWlLk6GJQsqaUBKTNV-1">
          <mxGeometry x="120" y="121" width="128" height="128" as="geometry" />
        </mxCell>
        <mxCell id="L-YuUdRwGQFwqvVQeacU-3" value="" style="whiteSpace=wrap;html=1;aspect=fixed;" vertex="1" parent="WIyWlLk6GJQsqaUBKTNV-1">
          <mxGeometry x="290" y="10" width="520" height="520" as="geometry" />
        </mxCell>
        <mxCell id="L-YuUdRwGQFwqvVQeacU-21" value="执行报错code:10002" style="edgeStyle=orthogonalEdgeStyle;rounded=0;orthogonalLoop=1;jettySize=auto;html=1;exitX=0.5;exitY=1;exitDx=0;exitDy=0;entryX=0.5;entryY=0;entryDx=0;entryDy=0;" edge="1" parent="WIyWlLk6GJQsqaUBKTNV-1" source="L-YuUdRwGQFwqvVQeacU-22" target="L-YuUdRwGQFwqvVQeacU-13">
          <mxGeometry x="-0.0244" y="-17" relative="1" as="geometry">
            <mxPoint x="373" y="190" as="sourcePoint" />
            <mxPoint x="437" y="260" as="targetPoint" />
            <Array as="points" />
            <mxPoint as="offset" />
          </mxGeometry>
        </mxCell>
        <mxCell id="L-YuUdRwGQFwqvVQeacU-45" value="" style="edgeStyle=orthogonalEdgeStyle;rounded=0;orthogonalLoop=1;jettySize=auto;html=1;fontSize=20;" edge="1" parent="WIyWlLk6GJQsqaUBKTNV-1" source="L-YuUdRwGQFwqvVQeacU-13" target="L-YuUdRwGQFwqvVQeacU-1">
          <mxGeometry relative="1" as="geometry">
            <mxPoint x="230" y="300" as="targetPoint" />
          </mxGeometry>
        </mxCell>
        <mxCell id="L-YuUdRwGQFwqvVQeacU-13" value="任务复制失败" style="whiteSpace=wrap;html=1;rounded=0;strokeColor=#1921FF;" vertex="1" parent="WIyWlLk6GJQsqaUBKTNV-1">
          <mxGeometry x="377" y="270" width="120" height="60" as="geometry" />
        </mxCell>
        <mxCell id="L-YuUdRwGQFwqvVQeacU-22" value="&lt;span&gt;api:/api/IAT/taskList&lt;/span&gt;" style="rhombus;whiteSpace=wrap;html=1;strokeColor=#1921FF;" vertex="1" parent="WIyWlLk6GJQsqaUBKTNV-1">
          <mxGeometry x="375" y="110" width="124" height="80" as="geometry" />
        </mxCell>
        <mxCell id="L-YuUdRwGQFwqvVQeacU-23" value="执行报错code:0" style="edgeStyle=orthogonalEdgeStyle;rounded=0;orthogonalLoop=1;jettySize=auto;html=1;exitX=1;exitY=0.5;exitDx=0;exitDy=0;entryX=0.5;entryY=0;entryDx=0;entryDy=0;" edge="1" parent="WIyWlLk6GJQsqaUBKTNV-1" source="L-YuUdRwGQFwqvVQeacU-22" target="L-YuUdRwGQFwqvVQeacU-25">
          <mxGeometry relative="1" as="geometry">
            <mxPoint x="569" y="200" as="sourcePoint" />
            <mxPoint x="569" y="282" as="targetPoint" />
            <Array as="points" />
          </mxGeometry>
        </mxCell>
        <mxCell id="L-YuUdRwGQFwqvVQeacU-25" value="任务类型" style="rhombus;whiteSpace=wrap;html=1;strokeColor=#1921FF;" vertex="1" parent="WIyWlLk6GJQsqaUBKTNV-1">
          <mxGeometry x="685" y="169" width="80" height="80" as="geometry" />
        </mxCell>
        <mxCell id="L-YuUdRwGQFwqvVQeacU-34" value="后端逻辑" style="text;html=1;strokeColor=none;fillColor=none;align=center;verticalAlign=middle;whiteSpace=wrap;rounded=0;fontSize=20;" vertex="1" parent="WIyWlLk6GJQsqaUBKTNV-1">
          <mxGeometry x="555" y="50" width="110" height="30" as="geometry" />
        </mxCell>
        <mxCell id="L-YuUdRwGQFwqvVQeacU-35" value="" style="rounded=0;whiteSpace=wrap;html=1;strokeColor=#1921FF;" vertex="1" parent="WIyWlLk6GJQsqaUBKTNV-1">
          <mxGeometry x="534" y="370" width="260" height="140" as="geometry" />
        </mxCell>
        <mxCell id="L-YuUdRwGQFwqvVQeacU-36" value="即时任务" style="whiteSpace=wrap;html=1;strokeColor=#1921FF;" vertex="1" parent="WIyWlLk6GJQsqaUBKTNV-1">
          <mxGeometry x="664" y="430" width="120" height="60" as="geometry" />
        </mxCell>
        <mxCell id="L-YuUdRwGQFwqvVQeacU-37" value="定时任务" style="whiteSpace=wrap;html=1;strokeColor=#1921FF;" vertex="1" parent="WIyWlLk6GJQsqaUBKTNV-1">
          <mxGeometry x="544" y="430" width="120" height="60" as="geometry" />
        </mxCell>
        <mxCell id="L-YuUdRwGQFwqvVQeacU-38" style="edgeStyle=orthogonalEdgeStyle;rounded=0;orthogonalLoop=1;jettySize=auto;html=1;entryX=0.269;entryY=0.429;entryDx=0;entryDy=0;entryPerimeter=0;" edge="1" parent="WIyWlLk6GJQsqaUBKTNV-1" source="L-YuUdRwGQFwqvVQeacU-25" target="L-YuUdRwGQFwqvVQeacU-35">
          <mxGeometry relative="1" as="geometry">
            <Array as="points">
              <mxPoint x="604" y="209" />
            </Array>
          </mxGeometry>
        </mxCell>
        <mxCell id="L-YuUdRwGQFwqvVQeacU-39" value="isTimeTask==1" style="edgeLabel;html=1;align=center;verticalAlign=middle;resizable=0;points=[];" vertex="1" connectable="0" parent="L-YuUdRwGQFwqvVQeacU-38">
          <mxGeometry x="0.1193" y="2" relative="1" as="geometry">
            <mxPoint as="offset" />
          </mxGeometry>
        </mxCell>
        <mxCell id="L-YuUdRwGQFwqvVQeacU-31" value="isTimeTask==0" style="edgeStyle=orthogonalEdgeStyle;rounded=0;orthogonalLoop=1;jettySize=auto;html=1;" edge="1" parent="WIyWlLk6GJQsqaUBKTNV-1" source="L-YuUdRwGQFwqvVQeacU-25" target="L-YuUdRwGQFwqvVQeacU-36">
          <mxGeometry relative="1" as="geometry">
            <mxPoint x="715" y="340" as="targetPoint" />
          </mxGeometry>
        </mxCell>
        <mxCell id="L-YuUdRwGQFwqvVQeacU-40" style="edgeStyle=orthogonalEdgeStyle;rounded=0;orthogonalLoop=1;jettySize=auto;html=1;exitX=-0.008;exitY=0.557;exitDx=0;exitDy=0;exitPerimeter=0;" edge="1" parent="WIyWlLk6GJQsqaUBKTNV-1" source="L-YuUdRwGQFwqvVQeacU-35">
          <mxGeometry relative="1" as="geometry">
            <mxPoint x="630" y="219" as="sourcePoint" />
            <mxPoint x="180" y="250" as="targetPoint" />
            <Array as="points">
              <mxPoint x="180" y="448" />
            </Array>
          </mxGeometry>
        </mxCell>
        <mxCell id="L-YuUdRwGQFwqvVQeacU-41" value="执行成功" style="edgeLabel;html=1;align=center;verticalAlign=middle;resizable=0;points=[];" vertex="1" connectable="0" parent="L-YuUdRwGQFwqvVQeacU-40">
          <mxGeometry x="0.1193" y="2" relative="1" as="geometry">
            <mxPoint as="offset" />
          </mxGeometry>
        </mxCell>
      </root>
    </mxGraphModel>
  </diagram>
</mxfile>
